<svg xmlns="http://www.w3.org/2000/svg" width="1200" height="675" viewBox="0 0 1200 675" role="img" aria-labelledby="title desc">
  <title id="title">tti local follow-up answer</title>
  <desc id="desc">The tti chat interface retains the selected resting heart-rate answer while changing its trend grouping to daily.</desc>
  <rect width="1200" height="675" fill="#f8fafc"/>
  <rect width="1200" height="54" fill="#ffffff"/>
  <path d="M0 54h1200" stroke="#e2e8f0"/>
  <text x="272" y="33" font-family="-apple-system,BlinkMacSystemFont,Segoe UI,sans-serif" font-size="16" fill="#2563eb">Chat</text>
  <text x="320" y="33" font-family="-apple-system,BlinkMacSystemFont,Segoe UI,sans-serif" font-size="16" fill="#64748b">Dashboard</text>
  <text x="408" y="33" font-family="-apple-system,BlinkMacSystemFont,Segoe UI,sans-serif" font-size="16" fill="#64748b">Diagnostics</text>
  <text x="505" y="33" font-family="-apple-system,BlinkMacSystemFont,Segoe UI,sans-serif" font-size="16" fill="#64748b">Settings</text>
  <text x="600" y="112" text-anchor="middle" font-family="-apple-system,BlinkMacSystemFont,Segoe UI,sans-serif" font-size="30" font-weight="700" fill="#0f172a">tti</text>
  <text x="600" y="140" text-anchor="middle" font-family="-apple-system,BlinkMacSystemFont,Segoe UI,sans-serif" font-size="16" fill="#64748b">talk to your health data</text>
  <rect x="255" y="180" width="690" height="58" rx="8" fill="#ffffff" stroke="#e2e8f0"/>
  <text x="273" y="204" font-family="-apple-system,BlinkMacSystemFont,Segoe UI,sans-serif" font-size="11" font-weight="700" fill="#94a3b8">QUERY</text>
  <text x="273" y="227" font-family="-apple-system,BlinkMacSystemFont,Segoe UI,sans-serif" font-size="15" fill="#334155">Show my resting heart rate trend this year</text>
  <rect x="255" y="260" width="690" height="98" rx="10" fill="#ffffff" stroke="#e2e8f0"/>
  <text x="279" y="294" font-family="-apple-system,BlinkMacSystemFont,Segoe UI,sans-serif" font-size="16" fill="#334155">This week Resting HR trend has 24 buckets.</text>
  <path d="M280 337c54-30 94 12 146-19s91 15 141-14 91 17 144-25 91 17 158-7" fill="none" stroke="#4f7df3" stroke-width="4" stroke-linecap="round"/>
  <rect x="255" y="380" width="690" height="37" rx="7" fill="#eff6ff"/>
  <text x="273" y="404" font-family="-apple-system,BlinkMacSystemFont,Segoe UI,sans-serif" font-size="14" font-weight="600" fill="#1d4ed8">Following up on: Show my resting heart rate trend this year</text>
  <rect x="255" y="432" width="690" height="58" rx="8" fill="#ffffff" stroke="#e2e8f0"/>
  <text x="273" y="456" font-family="-apple-system,BlinkMacSystemFont,Segoe UI,sans-serif" font-size="11" font-weight="700" fill="#94a3b8">QUERY</text>
  <text x="273" y="479" font-family="-apple-system,BlinkMacSystemFont,Segoe UI,sans-serif" font-size="15" fill="#334155">daily instead</text>
  <rect x="255" y="511" width="690" height="104" rx="10" fill="#ffffff" stroke="#e2e8f0"/>
  <text x="279" y="547" font-family="-apple-system,BlinkMacSystemFont,Segoe UI,sans-serif" font-size="16" fill="#334155">This day Resting HR trend has 161 buckets.</text>
  <path d="M280 590c46-27 83 8 124-19s75 15 118-9 76 18 119-15 84 17 132-16" fill="none" stroke="#4f7df3" stroke-width="4" stroke-linecap="round"/>
  <text x="255" y="651" font-family="-apple-system,BlinkMacSystemFont,Segoe UI,sans-serif" font-size="13" fill="#64748b">Deterministic local answer · synthetic fixture data</text>
</svg>
